<svg id="Group_23" data-name="Group 23" xmlns="http://www.w3.org/2000/svg" xmlns:xlink="http://www.w3.org/1999/xlink" width="166.343" height="119.272" viewBox="0 0 166.343 119.272">
  <defs>
    <clipPath id="clip-path">
      <rect id="Rectangle_82" data-name="Rectangle 82" width="166.343" height="119.272" fill="none"/>
    </clipPath>
  </defs>
  <g id="Group_22" data-name="Group 22" clip-path="url(#clip-path)">
    <path id="Path_221" data-name="Path 221" d="M124.784,74.777c-13.952-1.659-28.027-1.892-41.917-4.49A157.972,157.972,0,0,0,56.13,67.224c-3.388-.048-3.485-3-3.24-4.81C54.524,50.325,57.847,39.337,68.7,31.5c6.766-4.887,13.9-8.056,21.8-8.95,4.68-.531,9.855.751,14.421,2.33,7.816,2.7,15.6,5.778,21.073,12.631,1.466,1.836,3.771,3,5.281,4.808,3.112,3.735,5.388,7.9,4.647,13.061a90.751,90.751,0,0,0-1.246,13.3c.016,4.138-1.632,7.387-6.909,6.129a13.242,13.242,0,0,0-2.982-.031M64.342,44.683c1.554-1.039,1.594-2.956,2.259-4.511a.857.857,0,0,0-1.14-1.046c-1.6.8-2.99,1.914-2.67,4.029.121.8.351,1.611,1.551,1.528" fill="#181b1c"/>
    <path id="Path_222" data-name="Path 222" d="M130.052,89.406a6.391,6.391,0,0,1,4.6,4.422c1,2.731.783,4.086-2.663,5.193-11.069,3.559-22.259,1.387-33.373,1.31-2.95-.021-5.792,1.18-8.725.407-10.161-2.676-21.282.323-30.939-5.146-2.242-1.27-5.43-1.969-5.119-5.685.28-3.339,2.721-3.424,5.21-4.756,7.339-3.928,14.331-.43,21.267-.15,10.235.414,20.477.361,30.7.8,1.48.063,3.119-.248,4.4.292,1.372.58,2.156,0,2.23-.857.106-1.224-1.093-.814-1.968-1.076-9.288-2.79-19.258.763-28.427-3.264-3.122-1.372-6.48.567-9.754.58-4.527.019-7.8-2.929-11.453-4.963-2.715-1.511-5.511-2.39-8.511-.9-.946.469-1.888,2.011-2.757.291-.76-1.5.618-2.445,1.8-2.947,4.559-1.941,8.857-1.2,13.192,1.085,3.659,1.932,7.293,4.625,11.834,1.122a4.925,4.925,0,0,1,6.046.754c2.923,2.949,6.472,2.517,9.738,1.532,3.632-1.1,6.852-1.514,10.5.1,1.81.8,4.249.154,6.4.223,1.91.062,3.884-.358,5.231,1.811,1.149,1.852,3.379,1.557,5.033,1.1a12.32,12.32,0,0,1,6.637.386c2.64.684,5.443,1.77,5.267,4.881-.168,2.961-3.387,2.429-6.4,3.457m-5.2,2.807c-4.7-2.606-8.6-1.015-12.288-1.343-.243-.021-.758.6-.778.946-.051.886.765,1.046,1.38,1.021,3.486-.142,6.967-.362,11.686-.624" fill="#181b1c"/>
    <path id="Path_223" data-name="Path 223" d="M53.317,98.887a64.952,64.952,0,0,1,12.66.6c20.516,3.128,41.109,5.448,61.926,4.345,2.248-.119,4.38-.145,5.582,2.166,1.16,2.229-1.461,3.082-1.823,4.607-1.84,7.742-8.739,6.255-13.679,7.064-11.518,1.889-23.172,2.52-34.761-.432-5.218-1.33-10.756-.421-16.058-2.139-8.041-2.606-14.2-6.45-13.847-16.214" fill="#181b1c"/>
    <path id="Path_224" data-name="Path 224" d="M166.343,0c-.123,6.464-23.289,32.489-29.832,33.944C145.907,22.006,154.925,10.47,166.343,0" fill="#181b1c"/>
    <path id="Path_225" data-name="Path 225" d="M0,77.256c13.827,1.6,25.512,6.122,37.569,9.019C33.449,89.113,6.4,83.206,0,77.256" fill="#181b1c"/>
    <path id="Path_226" data-name="Path 226" d="M149.6,31.984c1.093,1.327,3.128,2.663,1.767,4.466-1.921,2.546-3.852,5.651-7.285,6.166-2.628.394-1.537-2.183-1.178-3.135,1.226-3.249,3.97-5.328,6.7-7.5" fill="#181b1c"/>
    <path id="Path_227" data-name="Path 227" d="M136.722,22.387c-1.44,2.037-2.365,5.083-5.015,6.749-1.172.737-2.629-.317-1.906-1.568a38.74,38.74,0,0,1,5.218-6.757c.871-.94,1.79-.407,1.7,1.576" fill="#181b1c"/>
    <path id="Path_228" data-name="Path 228" d="M29.195,75.143c3.594-1.3,4.737,2,6.769,3.437-2.6-.243-5.176-.531-6.769-3.437" fill="#181b1c"/>
  </g>
</svg>
