<svg id="Group_27" data-name="Group 27" xmlns="http://www.w3.org/2000/svg" xmlns:xlink="http://www.w3.org/1999/xlink" width="100.33" height="141.354" viewBox="0 0 100.33 141.354">
  <defs>
    <clipPath id="clip-path">
      <rect id="Rectangle_84" data-name="Rectangle 84" width="100.33" height="141.354" fill="none"/>
    </clipPath>
  </defs>
  <g id="Group_26" data-name="Group 26" clip-path="url(#clip-path)">
    <path id="Path_230" data-name="Path 230" d="M41.545,139.547c-1.148-.164-2.1-.573-2.375-.3-5.094,5.052-8.491-.362-12.492-1.954-5.591-2.225-10.625-5.367-15.724-8.57-6.2-3.894-5.349-9.919-6.415-15.485C3.281,106.673,2.946,99.772.6,93.63c-1.6-4.18.29-6.321,2.107-8.6A192.1,192.1,0,0,0,16.2,65.475c2.511-4.091.053-8.742-.036-13.123-.146-7.193-1.216-14.362-1.555-21.557-.135-2.861-.635-4.02-3.659-2.881A33.113,33.113,0,0,1,6.1,28.963,3.063,3.063,0,0,1,2.141,25.7c.218-2.641.512-5.125-.4-7.685-.3-.838.348-1.537,1.237-1.862C19.46,10.141,35.338,2.217,53.074.181c3.72-.428,5.919-.525,8.017,4.8,2.967,7.53.063,9.675-5.341,12.185-3.639,1.69-3.364,3.593-1.779,7.354,2.96,7.021,5.473,14.586,6.143,22.1.569,6.387,3.529,8.689,8.693,10.284,6.479,2,12.3,5.465,18.3,8.526,2.3,1.172,2.859,3.428,3.442,5.733,2.656,10.5,6.616,20.6,9.528,31.038a5.5,5.5,0,0,1-.917,5.006c-3.5,5.639-8.411,10.571-11.031,16.539-3.852,8.777-11.862,7.923-18.7,9.982-4.553,1.371-9.057,2.879-13.72,3.977-4.887,1.149-9.892.6-14.166,1.837M46.652,22.354c-2.964,1.3-5.76,3.263-9.042,3.511-1.6.122-4.132,1.894-4.8-.3-.486-1.6,2.06-2.93,3.55-4.113a2.3,2.3,0,0,1,.44-.224q9.515-4.55,19.029-9.1c1.074-.515,3.225-.849,1.817-2.457-1.435-1.639-.742-5.6-4.059-4.98A201.478,201.478,0,0,0,11.4,17.9c-2.34,1-4.17,1.9-2.661,4.783,1.36,2.6,4.07,1.825,5.533,1.033,3.694-2,4.543-.653,5.311,2.82,1.927,8.721,2.909,17.575,3.953,26.407.577,4.881,2.469,9.934-1.132,14.728-4.176,5.559-8.048,11.355-11.861,17.173-2.271,3.466-5.587,5.922-4.475,11.582,1.486,7.558,3.711,15.082,4.016,22.887.094,2.4,1.041,3.837,3.713,5.008,5.514,2.416,10.45,6.123,15.9,8.708,3.076,1.457,5.551,5.355,9.629,3.659A110.013,110.013,0,0,1,52.054,132.8c8.7-2.442,17-6.372,26.16-7.072,2.334-.179,3.2-1.492,4.388-3.308,3.135-4.8,4.908-10.323,8.454-14.932,2.209-2.871,2.67-6.228,1.417-10.211-2.636-8.38-6.606-16.531-6-25.694.082-1.245-.246-2.6-1.626-2.677-4.6-.256-8.239-3.143-12.3-4.7-5.776-2.215-11.731-4.222-14.965-11.288-4.53-9.9-7.791-20.038-10.931-30.562" fill="#181b1c"/>
    <path id="Path_231" data-name="Path 231" d="M14.3,112.884c.307-5.457-1.846-10.062-2.6-14.92-1.517-9.818,1.453-14.04,11.437-15.09a7.263,7.263,0,0,0,2.828-.716c9.309-5.391,17.923-3.854,26.1,2.472a17.86,17.86,0,0,1,1.621,1.14c5.293,5.165,10.875,4.928,17,1.38,10.938-6.341,9.472-6.386,14.15,5.323,3.67,9.186-1.062,14.651-4.217,21.571-3.695,8.1-10.8,8.734-18.1,9.913-6.315,1.021-12.772,1.34-18.86,3.744a15.463,15.463,0,0,1-15.087-1.664c-3-2.029-6.6-2.814-9.775-4.724-3.714-2.238-5.558-4.587-4.5-8.429M29.254,93.877c-.023,4.365,2.05,6.9,6.1,6.953,4.107.058,5.6-3.385,5.856-6.606.271-3.472-1.865-5.911-5.75-5.4-3.06.4-6.869.373-6.209,5.05" fill="#181b1c"/>
    <path id="Path_232" data-name="Path 232" d="M68.571,75.6c-.039,2.907-4.045,6.877-7.5,6.29-3.415-.581-4.636-3.462-4.594-6.578.053-4.008,2.408-5.579,6.377-5.418,3.477.141,5.9,1.05,5.72,5.706" fill="#181b1c"/>
    <path id="Path_233" data-name="Path 233" d="M56.317,66.2a4.638,4.638,0,0,1-4.548,3.656c-2.086.117-4-.4-4.185-3-.229-3.176,2.068-3.822,4.449-3.951,1.981-.108,4.017.2,4.284,3.3" fill="#181b1c"/>
  </g>
</svg>
